<mxfile host="app.diagrams.net" agent="Mozilla/5.0 (Windows NT 10.0; Win64; x64) AppleWebKit/537.36 (KHTML, like Gecko) Chrome/136.0.0.0 Safari/537.36" version="27.0.6">
  <diagram name="Página-1" id="EyqDsm6u3-PesMN-eG8d">
    <mxGraphModel dx="1744" dy="910" grid="1" gridSize="10" guides="1" tooltips="1" connect="1" arrows="1" fold="1" page="1" pageScale="1" pageWidth="827" pageHeight="1169" math="0" shadow="0">
      <root>
        <mxCell id="0" />
        <mxCell id="1" parent="0" />
        <mxCell id="FeLbw9m7gQqltbNBRUMP-1" value="Mascota" style="swimlane;fontStyle=1;align=center;verticalAlign=top;childLayout=stackLayout;horizontal=1;startSize=26;horizontalStack=0;resizeParent=1;resizeParentMax=0;resizeLast=0;collapsible=1;marginBottom=0;whiteSpace=wrap;html=1;" vertex="1" parent="1">
          <mxGeometry x="620" y="30" width="200" height="120" as="geometry" />
        </mxCell>
        <mxCell id="FeLbw9m7gQqltbNBRUMP-2" value="&lt;div&gt;- nombre : String&amp;nbsp;&amp;nbsp;&lt;/div&gt;&lt;div&gt;- edad : int&amp;nbsp;&amp;nbsp;&lt;/div&gt;&lt;div&gt;- color : String&amp;nbsp;&amp;nbsp;&lt;/div&gt;&lt;div&gt;&lt;br&gt;&lt;/div&gt;" style="text;strokeColor=none;fillColor=none;align=left;verticalAlign=top;spacingLeft=4;spacingRight=4;overflow=hidden;rotatable=0;points=[[0,0.5],[1,0.5]];portConstraint=eastwest;whiteSpace=wrap;html=1;" vertex="1" parent="FeLbw9m7gQqltbNBRUMP-1">
          <mxGeometry y="26" width="200" height="34" as="geometry" />
        </mxCell>
        <mxCell id="FeLbw9m7gQqltbNBRUMP-3" value="" style="line;strokeWidth=1;fillColor=none;align=left;verticalAlign=middle;spacingTop=-1;spacingLeft=3;spacingRight=3;rotatable=0;labelPosition=right;points=[];portConstraint=eastwest;strokeColor=inherit;" vertex="1" parent="FeLbw9m7gQqltbNBRUMP-1">
          <mxGeometry y="60" width="200" height="8" as="geometry" />
        </mxCell>
        <mxCell id="FeLbw9m7gQqltbNBRUMP-4" value="&lt;div&gt;+ Mascota(nombre: String, edad: int, color: String)&amp;nbsp;&amp;nbsp;&lt;/div&gt;&lt;div&gt;+ imprimir() : void&lt;/div&gt;&lt;div&gt;&lt;br&gt;&lt;/div&gt;" style="text;strokeColor=none;fillColor=none;align=left;verticalAlign=top;spacingLeft=4;spacingRight=4;overflow=hidden;rotatable=0;points=[[0,0.5],[1,0.5]];portConstraint=eastwest;whiteSpace=wrap;html=1;" vertex="1" parent="FeLbw9m7gQqltbNBRUMP-1">
          <mxGeometry y="68" width="200" height="52" as="geometry" />
        </mxCell>
        <mxCell id="FeLbw9m7gQqltbNBRUMP-5" value="Perro" style="swimlane;fontStyle=1;align=center;verticalAlign=top;childLayout=stackLayout;horizontal=1;startSize=26;horizontalStack=0;resizeParent=1;resizeParentMax=0;resizeLast=0;collapsible=1;marginBottom=0;whiteSpace=wrap;html=1;" vertex="1" parent="1">
          <mxGeometry x="210" y="220" width="250" height="150" as="geometry" />
        </mxCell>
        <mxCell id="FeLbw9m7gQqltbNBRUMP-6" value="&lt;div&gt;- peso : float&amp;nbsp;&amp;nbsp;&lt;/div&gt;&lt;div&gt;- muerde : boolean&amp;nbsp;&amp;nbsp;&lt;/div&gt;&lt;div&gt;&lt;br&gt;&lt;/div&gt;" style="text;strokeColor=none;fillColor=none;align=left;verticalAlign=top;spacingLeft=4;spacingRight=4;overflow=hidden;rotatable=0;points=[[0,0.5],[1,0.5]];portConstraint=eastwest;whiteSpace=wrap;html=1;" vertex="1" parent="FeLbw9m7gQqltbNBRUMP-5">
          <mxGeometry y="26" width="250" height="34" as="geometry" />
        </mxCell>
        <mxCell id="FeLbw9m7gQqltbNBRUMP-7" value="" style="line;strokeWidth=1;fillColor=none;align=left;verticalAlign=middle;spacingTop=-1;spacingLeft=3;spacingRight=3;rotatable=0;labelPosition=right;points=[];portConstraint=eastwest;strokeColor=inherit;" vertex="1" parent="FeLbw9m7gQqltbNBRUMP-5">
          <mxGeometry y="60" width="250" height="8" as="geometry" />
        </mxCell>
        <mxCell id="FeLbw9m7gQqltbNBRUMP-8" value="&lt;div&gt;+ Perro(nombre: String, edad: int, color: String, peso: float, muerde: boolean)&amp;nbsp;&amp;nbsp;&lt;/div&gt;&lt;div&gt;+ imprimir() : void&amp;nbsp;&amp;nbsp;&lt;/div&gt;&lt;div&gt;+ static sonido() : void&amp;nbsp; // &quot;Los perros ladran&quot;&lt;/div&gt;&lt;div&gt;&lt;br&gt;&lt;/div&gt;" style="text;strokeColor=none;fillColor=none;align=left;verticalAlign=top;spacingLeft=4;spacingRight=4;overflow=hidden;rotatable=0;points=[[0,0.5],[1,0.5]];portConstraint=eastwest;whiteSpace=wrap;html=1;" vertex="1" parent="FeLbw9m7gQqltbNBRUMP-5">
          <mxGeometry y="68" width="250" height="82" as="geometry" />
        </mxCell>
        <mxCell id="FeLbw9m7gQqltbNBRUMP-9" value="PerroGrande" style="swimlane;fontStyle=1;align=center;verticalAlign=top;childLayout=stackLayout;horizontal=1;startSize=26;horizontalStack=0;resizeParent=1;resizeParentMax=0;resizeLast=0;collapsible=1;marginBottom=0;whiteSpace=wrap;html=1;" vertex="1" parent="1">
          <mxGeometry x="20" y="450" width="160" height="150" as="geometry" />
        </mxCell>
        <mxCell id="FeLbw9m7gQqltbNBRUMP-10" value="&lt;div&gt;- raza : String&amp;nbsp;&amp;nbsp;&lt;/div&gt;&lt;div&gt;&lt;br&gt;&lt;/div&gt;" style="text;strokeColor=none;fillColor=none;align=left;verticalAlign=top;spacingLeft=4;spacingRight=4;overflow=hidden;rotatable=0;points=[[0,0.5],[1,0.5]];portConstraint=eastwest;whiteSpace=wrap;html=1;" vertex="1" parent="FeLbw9m7gQqltbNBRUMP-9">
          <mxGeometry y="26" width="160" height="26" as="geometry" />
        </mxCell>
        <mxCell id="FeLbw9m7gQqltbNBRUMP-11" value="" style="line;strokeWidth=1;fillColor=none;align=left;verticalAlign=middle;spacingTop=-1;spacingLeft=3;spacingRight=3;rotatable=0;labelPosition=right;points=[];portConstraint=eastwest;strokeColor=inherit;" vertex="1" parent="FeLbw9m7gQqltbNBRUMP-9">
          <mxGeometry y="52" width="160" height="8" as="geometry" />
        </mxCell>
        <mxCell id="FeLbw9m7gQqltbNBRUMP-12" value="&lt;div&gt;+ PerroGrande(nombre: String, edad: int, color: String, peso: float, muerde: boolean, raza: String)&amp;nbsp;&amp;nbsp;&lt;/div&gt;&lt;div&gt;+ imprimir() : void&lt;/div&gt;&lt;div&gt;&lt;br&gt;&lt;/div&gt;" style="text;strokeColor=none;fillColor=none;align=left;verticalAlign=top;spacingLeft=4;spacingRight=4;overflow=hidden;rotatable=0;points=[[0,0.5],[1,0.5]];portConstraint=eastwest;whiteSpace=wrap;html=1;" vertex="1" parent="FeLbw9m7gQqltbNBRUMP-9">
          <mxGeometry y="60" width="160" height="90" as="geometry" />
        </mxCell>
        <mxCell id="FeLbw9m7gQqltbNBRUMP-13" value="PerroMediano" style="swimlane;fontStyle=1;align=center;verticalAlign=top;childLayout=stackLayout;horizontal=1;startSize=26;horizontalStack=0;resizeParent=1;resizeParentMax=0;resizeLast=0;collapsible=1;marginBottom=0;whiteSpace=wrap;html=1;" vertex="1" parent="1">
          <mxGeometry x="200" y="455" width="170" height="140" as="geometry" />
        </mxCell>
        <mxCell id="FeLbw9m7gQqltbNBRUMP-14" value="&lt;div&gt;- raza : String&amp;nbsp;&amp;nbsp;&lt;/div&gt;&lt;div&gt;&lt;br&gt;&lt;/div&gt;" style="text;strokeColor=none;fillColor=none;align=left;verticalAlign=top;spacingLeft=4;spacingRight=4;overflow=hidden;rotatable=0;points=[[0,0.5],[1,0.5]];portConstraint=eastwest;whiteSpace=wrap;html=1;" vertex="1" parent="FeLbw9m7gQqltbNBRUMP-13">
          <mxGeometry y="26" width="170" height="26" as="geometry" />
        </mxCell>
        <mxCell id="FeLbw9m7gQqltbNBRUMP-15" value="" style="line;strokeWidth=1;fillColor=none;align=left;verticalAlign=middle;spacingTop=-1;spacingLeft=3;spacingRight=3;rotatable=0;labelPosition=right;points=[];portConstraint=eastwest;strokeColor=inherit;" vertex="1" parent="FeLbw9m7gQqltbNBRUMP-13">
          <mxGeometry y="52" width="170" height="8" as="geometry" />
        </mxCell>
        <mxCell id="FeLbw9m7gQqltbNBRUMP-16" value="&lt;div&gt;+ PerroMediano(nombre: String, edad: int, color: String, peso: float, muerde: boolean, raza: String)&amp;nbsp;&amp;nbsp;&lt;/div&gt;&lt;div&gt;+ imprimir() : void&lt;/div&gt;&lt;div&gt;&lt;br&gt;&lt;/div&gt;" style="text;strokeColor=none;fillColor=none;align=left;verticalAlign=top;spacingLeft=4;spacingRight=4;overflow=hidden;rotatable=0;points=[[0,0.5],[1,0.5]];portConstraint=eastwest;whiteSpace=wrap;html=1;" vertex="1" parent="FeLbw9m7gQqltbNBRUMP-13">
          <mxGeometry y="60" width="170" height="80" as="geometry" />
        </mxCell>
        <mxCell id="FeLbw9m7gQqltbNBRUMP-17" value="PerroPequeño" style="swimlane;fontStyle=1;align=center;verticalAlign=top;childLayout=stackLayout;horizontal=1;startSize=26;horizontalStack=0;resizeParent=1;resizeParentMax=0;resizeLast=0;collapsible=1;marginBottom=0;whiteSpace=wrap;html=1;" vertex="1" parent="1">
          <mxGeometry x="400" y="455" width="160" height="140" as="geometry" />
        </mxCell>
        <mxCell id="FeLbw9m7gQqltbNBRUMP-18" value="&lt;div&gt;- raza : String&amp;nbsp;&amp;nbsp;&lt;/div&gt;&lt;div&gt;&lt;br&gt;&lt;/div&gt;" style="text;strokeColor=none;fillColor=none;align=left;verticalAlign=top;spacingLeft=4;spacingRight=4;overflow=hidden;rotatable=0;points=[[0,0.5],[1,0.5]];portConstraint=eastwest;whiteSpace=wrap;html=1;" vertex="1" parent="FeLbw9m7gQqltbNBRUMP-17">
          <mxGeometry y="26" width="160" height="26" as="geometry" />
        </mxCell>
        <mxCell id="FeLbw9m7gQqltbNBRUMP-19" value="" style="line;strokeWidth=1;fillColor=none;align=left;verticalAlign=middle;spacingTop=-1;spacingLeft=3;spacingRight=3;rotatable=0;labelPosition=right;points=[];portConstraint=eastwest;strokeColor=inherit;" vertex="1" parent="FeLbw9m7gQqltbNBRUMP-17">
          <mxGeometry y="52" width="160" height="8" as="geometry" />
        </mxCell>
        <mxCell id="FeLbw9m7gQqltbNBRUMP-20" value="&lt;div&gt;+ PerroPequeño(nombre: String, edad: int, color: String, peso: float, muerde: boolean, raza: String)&amp;nbsp;&amp;nbsp;&lt;/div&gt;&lt;div&gt;+ imprimir() : void&lt;/div&gt;&lt;div&gt;&lt;br&gt;&lt;/div&gt;" style="text;strokeColor=none;fillColor=none;align=left;verticalAlign=top;spacingLeft=4;spacingRight=4;overflow=hidden;rotatable=0;points=[[0,0.5],[1,0.5]];portConstraint=eastwest;whiteSpace=wrap;html=1;" vertex="1" parent="FeLbw9m7gQqltbNBRUMP-17">
          <mxGeometry y="60" width="160" height="80" as="geometry" />
        </mxCell>
        <mxCell id="FeLbw9m7gQqltbNBRUMP-21" value="Gato" style="swimlane;fontStyle=1;align=center;verticalAlign=top;childLayout=stackLayout;horizontal=1;startSize=26;horizontalStack=0;resizeParent=1;resizeParentMax=0;resizeLast=0;collapsible=1;marginBottom=0;whiteSpace=wrap;html=1;" vertex="1" parent="1">
          <mxGeometry x="900" y="210" width="270" height="150" as="geometry" />
        </mxCell>
        <mxCell id="FeLbw9m7gQqltbNBRUMP-22" value="&lt;div&gt;- alturaSalto : float&amp;nbsp;&amp;nbsp;&lt;/div&gt;&lt;div&gt;- longitudSalto : float&amp;nbsp;&amp;nbsp;&lt;/div&gt;&lt;div&gt;&lt;br&gt;&lt;/div&gt;" style="text;strokeColor=none;fillColor=none;align=left;verticalAlign=top;spacingLeft=4;spacingRight=4;overflow=hidden;rotatable=0;points=[[0,0.5],[1,0.5]];portConstraint=eastwest;whiteSpace=wrap;html=1;" vertex="1" parent="FeLbw9m7gQqltbNBRUMP-21">
          <mxGeometry y="26" width="270" height="34" as="geometry" />
        </mxCell>
        <mxCell id="FeLbw9m7gQqltbNBRUMP-23" value="" style="line;strokeWidth=1;fillColor=none;align=left;verticalAlign=middle;spacingTop=-1;spacingLeft=3;spacingRight=3;rotatable=0;labelPosition=right;points=[];portConstraint=eastwest;strokeColor=inherit;" vertex="1" parent="FeLbw9m7gQqltbNBRUMP-21">
          <mxGeometry y="60" width="270" height="8" as="geometry" />
        </mxCell>
        <mxCell id="FeLbw9m7gQqltbNBRUMP-24" value="&lt;div&gt;+ Gato(nombre: String, edad: int, color: String, alturaSalto: float, longitudSalto: float)&amp;nbsp;&amp;nbsp;&lt;/div&gt;&lt;div&gt;+ imprimir() : void&amp;nbsp;&amp;nbsp;&lt;/div&gt;&lt;div&gt;+ static sonido() : void&amp;nbsp; // &quot;Los gatos maúllan y ronronean&quot;&lt;/div&gt;&lt;div&gt;&lt;br&gt;&lt;/div&gt;" style="text;strokeColor=none;fillColor=none;align=left;verticalAlign=top;spacingLeft=4;spacingRight=4;overflow=hidden;rotatable=0;points=[[0,0.5],[1,0.5]];portConstraint=eastwest;whiteSpace=wrap;html=1;" vertex="1" parent="FeLbw9m7gQqltbNBRUMP-21">
          <mxGeometry y="68" width="270" height="82" as="geometry" />
        </mxCell>
        <mxCell id="FeLbw9m7gQqltbNBRUMP-25" value="GatoSinPelo" style="swimlane;fontStyle=1;align=center;verticalAlign=top;childLayout=stackLayout;horizontal=1;startSize=26;horizontalStack=0;resizeParent=1;resizeParentMax=0;resizeLast=0;collapsible=1;marginBottom=0;whiteSpace=wrap;html=1;" vertex="1" parent="1">
          <mxGeometry x="680" y="450" width="180" height="140" as="geometry" />
        </mxCell>
        <mxCell id="FeLbw9m7gQqltbNBRUMP-26" value="&lt;div&gt;- raza : String&amp;nbsp;&amp;nbsp;&lt;/div&gt;&lt;div&gt;&lt;br&gt;&lt;/div&gt;" style="text;strokeColor=none;fillColor=none;align=left;verticalAlign=top;spacingLeft=4;spacingRight=4;overflow=hidden;rotatable=0;points=[[0,0.5],[1,0.5]];portConstraint=eastwest;whiteSpace=wrap;html=1;" vertex="1" parent="FeLbw9m7gQqltbNBRUMP-25">
          <mxGeometry y="26" width="180" height="26" as="geometry" />
        </mxCell>
        <mxCell id="FeLbw9m7gQqltbNBRUMP-27" value="" style="line;strokeWidth=1;fillColor=none;align=left;verticalAlign=middle;spacingTop=-1;spacingLeft=3;spacingRight=3;rotatable=0;labelPosition=right;points=[];portConstraint=eastwest;strokeColor=inherit;" vertex="1" parent="FeLbw9m7gQqltbNBRUMP-25">
          <mxGeometry y="52" width="180" height="8" as="geometry" />
        </mxCell>
        <mxCell id="FeLbw9m7gQqltbNBRUMP-28" value="&lt;div&gt;+ GatoSinPelo(nombre: String, edad: int, color: String, alturaSalto: float, longitudSalto: float, raza: String)&amp;nbsp;&amp;nbsp;&lt;/div&gt;&lt;div&gt;+ imprimir() : void&lt;/div&gt;&lt;div&gt;&lt;br&gt;&lt;/div&gt;" style="text;strokeColor=none;fillColor=none;align=left;verticalAlign=top;spacingLeft=4;spacingRight=4;overflow=hidden;rotatable=0;points=[[0,0.5],[1,0.5]];portConstraint=eastwest;whiteSpace=wrap;html=1;" vertex="1" parent="FeLbw9m7gQqltbNBRUMP-25">
          <mxGeometry y="60" width="180" height="80" as="geometry" />
        </mxCell>
        <mxCell id="FeLbw9m7gQqltbNBRUMP-29" value="GatoPeloLargo" style="swimlane;fontStyle=1;align=center;verticalAlign=top;childLayout=stackLayout;horizontal=1;startSize=26;horizontalStack=0;resizeParent=1;resizeParentMax=0;resizeLast=0;collapsible=1;marginBottom=0;whiteSpace=wrap;html=1;" vertex="1" parent="1">
          <mxGeometry x="910" y="455" width="170" height="160" as="geometry" />
        </mxCell>
        <mxCell id="FeLbw9m7gQqltbNBRUMP-30" value="&lt;div&gt;- raza : String&amp;nbsp;&amp;nbsp;&lt;/div&gt;&lt;div&gt;&lt;br&gt;&lt;/div&gt;" style="text;strokeColor=none;fillColor=none;align=left;verticalAlign=top;spacingLeft=4;spacingRight=4;overflow=hidden;rotatable=0;points=[[0,0.5],[1,0.5]];portConstraint=eastwest;whiteSpace=wrap;html=1;" vertex="1" parent="FeLbw9m7gQqltbNBRUMP-29">
          <mxGeometry y="26" width="170" height="26" as="geometry" />
        </mxCell>
        <mxCell id="FeLbw9m7gQqltbNBRUMP-31" value="" style="line;strokeWidth=1;fillColor=none;align=left;verticalAlign=middle;spacingTop=-1;spacingLeft=3;spacingRight=3;rotatable=0;labelPosition=right;points=[];portConstraint=eastwest;strokeColor=inherit;" vertex="1" parent="FeLbw9m7gQqltbNBRUMP-29">
          <mxGeometry y="52" width="170" height="8" as="geometry" />
        </mxCell>
        <mxCell id="FeLbw9m7gQqltbNBRUMP-32" value="&lt;div&gt;+ GatoPeloLargo(nombre: String, edad: int, color: String, alturaSalto: float, longitudSalto: float, raza: String)&amp;nbsp;&amp;nbsp;&lt;/div&gt;&lt;div&gt;+ imprimir() : void&lt;/div&gt;&lt;div&gt;&lt;br&gt;&lt;/div&gt;" style="text;strokeColor=none;fillColor=none;align=left;verticalAlign=top;spacingLeft=4;spacingRight=4;overflow=hidden;rotatable=0;points=[[0,0.5],[1,0.5]];portConstraint=eastwest;whiteSpace=wrap;html=1;" vertex="1" parent="FeLbw9m7gQqltbNBRUMP-29">
          <mxGeometry y="60" width="170" height="100" as="geometry" />
        </mxCell>
        <mxCell id="FeLbw9m7gQqltbNBRUMP-33" value="GatoPeloCorto" style="swimlane;fontStyle=1;align=center;verticalAlign=top;childLayout=stackLayout;horizontal=1;startSize=26;horizontalStack=0;resizeParent=1;resizeParentMax=0;resizeLast=0;collapsible=1;marginBottom=0;whiteSpace=wrap;html=1;" vertex="1" parent="1">
          <mxGeometry x="1140" y="450" width="180" height="140" as="geometry" />
        </mxCell>
        <mxCell id="FeLbw9m7gQqltbNBRUMP-34" value="&lt;div&gt;- raza : String&amp;nbsp;&amp;nbsp;&lt;/div&gt;&lt;div&gt;&lt;br&gt;&lt;/div&gt;" style="text;strokeColor=none;fillColor=none;align=left;verticalAlign=top;spacingLeft=4;spacingRight=4;overflow=hidden;rotatable=0;points=[[0,0.5],[1,0.5]];portConstraint=eastwest;whiteSpace=wrap;html=1;" vertex="1" parent="FeLbw9m7gQqltbNBRUMP-33">
          <mxGeometry y="26" width="180" height="26" as="geometry" />
        </mxCell>
        <mxCell id="FeLbw9m7gQqltbNBRUMP-35" value="" style="line;strokeWidth=1;fillColor=none;align=left;verticalAlign=middle;spacingTop=-1;spacingLeft=3;spacingRight=3;rotatable=0;labelPosition=right;points=[];portConstraint=eastwest;strokeColor=inherit;" vertex="1" parent="FeLbw9m7gQqltbNBRUMP-33">
          <mxGeometry y="52" width="180" height="8" as="geometry" />
        </mxCell>
        <mxCell id="FeLbw9m7gQqltbNBRUMP-36" value="&lt;div&gt;+ GatoPeloCorto(nombre: String, edad: int, color: String, alturaSalto: float, longitudSalto: float, raza: String)&amp;nbsp;&amp;nbsp;&lt;/div&gt;&lt;div&gt;+ imprimir() : void&lt;/div&gt;&lt;div&gt;&lt;br&gt;&lt;/div&gt;" style="text;strokeColor=none;fillColor=none;align=left;verticalAlign=top;spacingLeft=4;spacingRight=4;overflow=hidden;rotatable=0;points=[[0,0.5],[1,0.5]];portConstraint=eastwest;whiteSpace=wrap;html=1;" vertex="1" parent="FeLbw9m7gQqltbNBRUMP-33">
          <mxGeometry y="60" width="180" height="80" as="geometry" />
        </mxCell>
        <mxCell id="FeLbw9m7gQqltbNBRUMP-38" value="" style="endArrow=classic;html=1;rounded=0;exitX=0.581;exitY=0.001;exitDx=0;exitDy=0;exitPerimeter=0;entryX=0.332;entryY=1.152;entryDx=0;entryDy=0;entryPerimeter=0;" edge="1" parent="1" source="FeLbw9m7gQqltbNBRUMP-5" target="FeLbw9m7gQqltbNBRUMP-4">
          <mxGeometry width="50" height="50" relative="1" as="geometry">
            <mxPoint x="340" y="220" as="sourcePoint" />
            <mxPoint x="390" y="170" as="targetPoint" />
          </mxGeometry>
        </mxCell>
        <mxCell id="FeLbw9m7gQqltbNBRUMP-39" value="" style="endArrow=classic;html=1;rounded=0;exitX=0.5;exitY=0;exitDx=0;exitDy=0;entryX=0.599;entryY=1.066;entryDx=0;entryDy=0;entryPerimeter=0;" edge="1" parent="1" source="FeLbw9m7gQqltbNBRUMP-21" target="FeLbw9m7gQqltbNBRUMP-4">
          <mxGeometry width="50" height="50" relative="1" as="geometry">
            <mxPoint x="1040" y="220" as="sourcePoint" />
            <mxPoint x="1371" y="158" as="targetPoint" />
          </mxGeometry>
        </mxCell>
        <mxCell id="FeLbw9m7gQqltbNBRUMP-40" value="" style="endArrow=classic;html=1;rounded=0;entryX=0.332;entryY=1.015;entryDx=0;entryDy=0;entryPerimeter=0;" edge="1" parent="1" target="FeLbw9m7gQqltbNBRUMP-8">
          <mxGeometry width="50" height="50" relative="1" as="geometry">
            <mxPoint x="100" y="450" as="sourcePoint" />
            <mxPoint x="150" y="400" as="targetPoint" />
          </mxGeometry>
        </mxCell>
        <mxCell id="FeLbw9m7gQqltbNBRUMP-41" value="" style="endArrow=classic;html=1;rounded=0;entryX=0.368;entryY=1.015;entryDx=0;entryDy=0;entryPerimeter=0;" edge="1" parent="1" target="FeLbw9m7gQqltbNBRUMP-8">
          <mxGeometry width="50" height="50" relative="1" as="geometry">
            <mxPoint x="290" y="455" as="sourcePoint" />
            <mxPoint x="340" y="405" as="targetPoint" />
          </mxGeometry>
        </mxCell>
        <mxCell id="FeLbw9m7gQqltbNBRUMP-42" value="" style="endArrow=classic;html=1;rounded=0;entryX=0.572;entryY=1.042;entryDx=0;entryDy=0;entryPerimeter=0;exitX=0.5;exitY=0;exitDx=0;exitDy=0;" edge="1" parent="1" source="FeLbw9m7gQqltbNBRUMP-17" target="FeLbw9m7gQqltbNBRUMP-8">
          <mxGeometry width="50" height="50" relative="1" as="geometry">
            <mxPoint x="730" y="460" as="sourcePoint" />
            <mxPoint x="780" y="410" as="targetPoint" />
          </mxGeometry>
        </mxCell>
        <mxCell id="FeLbw9m7gQqltbNBRUMP-43" value="" style="endArrow=classic;html=1;rounded=0;entryX=0.493;entryY=0.974;entryDx=0;entryDy=0;entryPerimeter=0;exitX=0.5;exitY=0;exitDx=0;exitDy=0;" edge="1" parent="1" source="FeLbw9m7gQqltbNBRUMP-25" target="FeLbw9m7gQqltbNBRUMP-24">
          <mxGeometry width="50" height="50" relative="1" as="geometry">
            <mxPoint x="730" y="460" as="sourcePoint" />
            <mxPoint x="780" y="410" as="targetPoint" />
          </mxGeometry>
        </mxCell>
        <mxCell id="FeLbw9m7gQqltbNBRUMP-44" value="" style="endArrow=classic;html=1;rounded=0;exitX=0.5;exitY=0;exitDx=0;exitDy=0;entryX=0.481;entryY=1.122;entryDx=0;entryDy=0;entryPerimeter=0;" edge="1" parent="1" source="FeLbw9m7gQqltbNBRUMP-29" target="FeLbw9m7gQqltbNBRUMP-24">
          <mxGeometry width="50" height="50" relative="1" as="geometry">
            <mxPoint x="730" y="460" as="sourcePoint" />
            <mxPoint x="1010" y="420" as="targetPoint" />
          </mxGeometry>
        </mxCell>
        <mxCell id="FeLbw9m7gQqltbNBRUMP-45" value="" style="endArrow=classic;html=1;rounded=0;exitX=0.5;exitY=0;exitDx=0;exitDy=0;entryX=0.509;entryY=1.056;entryDx=0;entryDy=0;entryPerimeter=0;" edge="1" parent="1" source="FeLbw9m7gQqltbNBRUMP-33" target="FeLbw9m7gQqltbNBRUMP-24">
          <mxGeometry width="50" height="50" relative="1" as="geometry">
            <mxPoint x="730" y="460" as="sourcePoint" />
            <mxPoint x="1050" y="410" as="targetPoint" />
          </mxGeometry>
        </mxCell>
      </root>
    </mxGraphModel>
  </diagram>
</mxfile>
